PathFileType	4	(X/Y/Z)	/Users/itak/Documents/Research/Walk-IL/dataset/trc/00379_00012.trc
DataRate	CameraRate	NumFrames	NumMarkers	Units	OrigDataRate	OrigDataStartFrame	OrigNumFrames
100.000000	100.000000	4	56	mm	100.000000	132	354
Frame#	Time	RPSI			LPSI			L3			STRN			T10			C7			CLAV			RBAK			LBAK			LSHO			LUPA			LAEL			LAOL			LWTS			LWPS			LFRA			LIFD			LHPS			LHTS			RSHO			RUPA			RAEL			RAOL			RWTS			RWPS			RFRA			RIFD			RBHD			LFHD			RFHD			LBHD			LHIP			RASI			LASI			LKNE			LTHI			LANK			LTIP			LTOE			LMT1			LMT5			LHEE			RKNE			RTHI			RANK			RTIP			RTOE			RMT1			RMT5			RHEE			RHTS			RHPS			RHIP			*53			*54			*55			
		X1	Y1	Z1	X2	Y2	Z2	X3	Y3	Z3	X4	Y4	Z4	X5	Y5	Z5	X6	Y6	Z6	X7	Y7	Z7	X8	Y8	Z8	X9	Y9	Z9	X10	Y10	Z10	X11	Y11	Z11	X12	Y12	Z12	X13	Y13	Z13	X14	Y14	Z14	X15	Y15	Z15	X16	Y16	Z16	X17	Y17	Z17	X18	Y18	Z18	X19	Y19	Z19	X20	Y20	Z20	X21	Y21	Z21	X22	Y22	Z22	X23	Y23	Z23	X24	Y24	Z24	X25	Y25	Z25	X26	Y26	Z26	X27	Y27	Z27	X28	Y28	Z28	X29	Y29	Z29	X30	Y30	Z30	X31	Y31	Z31	X32	Y32	Z32	X33	Y33	Z33	X34	Y34	Z34	X35	Y35	Z35	X36	Y36	Z36	X37	Y37	Z37	X38	Y38	Z38	X39	Y39	Z39	X40	Y40	Z40	X41	Y41	Z41	X42	Y42	Z42	X43	Y43	Z43	X44	Y44	Z44	X45	Y45	Z45	X46	Y46	Z46	X47	Y47	Z47	X48	Y48	Z48	X49	Y49	Z49	X50	Y50	Z50	X51	Y51	Z51	X52	Y52	Z52	X53	Y53	Z53	X54	Y54	Z54	X55	Y55	Z55	X56	Y56	Z56	

133	1.32	-476.9331359863281	931.1627197265625	223.5474853515625	-495.9873046875	921.468505859375	92.99770355224609	-485.9757385253906	999.4602661132812	151.8103637695312	-257.2926635742188	1158.944213867188	138.5550537109375	-508.3164367675781	1103.227172851562	141.0864410400391	-473.3179931640625	1351.423828125	128.2908477783203	-315.4482116699219	1276.306030273438	139.0219421386719	-515.1034545898438	1204.6748046875	188.0293426513672	-487.264404296875	1315.411254882812	25.44126129150391	-399.9332885742188	1334.156860351562	-22.33104515075684	-419.53955078125	1213.570678710938	-90.42285919189453	-372.2162475585938	1025.134399414062	-118.1237182617188	-418.0935668945312	989.1346435546875	-54.02531051635742	-180.9578247070312	920.5259399414062	-90.10872650146484	-214.7419891357422	880.2863159179688	-154.4490203857422	-313.6599731445312	953.0885009765625	-133.2101135253906	-60.69095993041992	792.5025024414062	-118.0454483032227	-143.3652191162109	829.9669189453125	-156.2527770996094	-103.2034072875977	868.2120971679688	-123.888542175293	-423.7980041503906	1328.516235351562	287.7771606445312	-449.3375854492188	1266.578735351562	339.102294921875	-510.7135620117188	1012.486450195312	357.5267028808594	-498.9404296875	1006.159057617188	263.2435913085938	-449.2788696289062	769.95458984375	361.2879943847656	-509.4679565429688	777.9268798828125	404.2813415527344	-511.1517028808594	946.305908203125	378.71875	-513.7207641601562	611.367431640625	344.5342102050781	-440.8580627441406	1535.631958007812	220.6266784667969	-301.0118408203125	1548.749389648438	79.24553680419922	-310.0958251953125	1550.775756835938	201.8358459472656	-447.5688171386719	1530.9345703125	58.3306999206543	-429.8739013671875	902.0145263671875	-32.88649368286133	-258.0943298339844	925.9959106445312	244.0743103027344	-308.2267761230469	893.699462890625	-13.7431640625	-501.0343627929688	426.1376037597656	7.834508895874023	-468.6252746582031	564.0043334960938	-8.906471252441406	-841.6948852539062	119.8802795410156	67.8526611328125	-678.3863525390625	265.6241455078125	25.7152214050293	-672.0972290039062	37.2902717590332	156.2793121337891	-733.7755126953125	68.89626312255859	172.9828643798828	-743.8600463867188	43.8602409362793	73.00557708740234	-869.4192504882812	158.5925140380859	117.8532791137695	-149.6136169433594	477.4275207519531	243.7261505126953	-234.0071411132812	719.5720825195312	297.8916931152344	-119.2762298583984	51.63811874389648	206.64697265625	-111.7213897705078	355.6416320800781	221.7143859863281	48.37045669555664	44.03284454345703	121.7110366821289	-29.88060569763184	44.4998893737793	100.5882720947266	-35.76062774658203	42.7393913269043	201.4069519042969	-196.6902770996094	39.46608734130859	163.9596252441406	-479.5306701660156	666.0968017578125	377.0553588867188	-537.7418212890625	693.4593505859375	399.3392944335938	-375.562744140625	919.9913940429688	324.1804504394531	nan	nan	nan	nan	nan	nan	nan	nan	nan	
134	1.33	-462.2665100097656	932.8226318359375	223.2789306640625	-480.7131652832031	921.9063110351562	92.65335083007812	-470.7563171386719	1000.123107910156	151.5712585449219	-243.0843200683594	1161.12451171875	138.9581756591797	-494.0841064453125	1104.005493164062	141.4581604003906	-460.1597900390625	1352.319091796875	128.7217864990234	-301.900390625	1278.18896484375	139.2906341552734	-501.0515747070312	1205.564697265625	188.6517028808594	-474.0951538085938	1316.248291015625	26.00195503234863	-386.9678039550781	1335.291259765625	-21.96627616882324	-407.1517333984375	1214.728149414062	-89.81837463378906	-361.719482421875	1025.529174804688	-117.2207946777344	-407.6565856933594	990.765625	-52.46890258789062	-173.3240356445312	913.53173828125	-88.74187469482422	-208.3815002441406	874.8456420898438	-153.3516540527344	-304.6449890136719	951.1878662109375	-132.2915649414062	-58.65327453613281	780.5260620117188	-116.0776748657227	-139.0316467285156	821.6183471679688	-154.8140716552734	-97.58722686767578	858.0407104492188	-122.1109771728516	-410.2467651367188	1330.059326171875	288.1217346191406	-435.1647033691406	1268.090209960938	339.6822509765625	-494.3484191894531	1013.529968261719	359.1889953613281	-483.7768249511719	1007.4150390625	264.5623474121094	-430.3347778320312	771.6250610351562	361.6589660644531	-489.9101867675781	778.7381591796875	405.7379760742188	-493.9288635253906	947.2537841796875	380.2172546386719	-493.6067504882812	612.5084228515625	344.7048645019531	-428.4074096679688	1536.926025390625	220.6566162109375	-288.8726806640625	1550.34521484375	79.02921295166016	-297.7692260742188	1552.592407226562	201.5897064208984	-435.3839721679688	1531.844970703125	58.37334823608398	-413.9308776855469	902.2738647460938	-32.6541748046875	-243.2232360839844	928.5521850585938	245.1371612548828	-292.7000732421875	894.5823364257812	-12.46287631988525	-479.4880676269531	424.8216552734375	5.36459493637085	-448.687255859375	562.5115356445312	-9.648816108703613	-829.9633178710938	129.7711791992188	63.87607955932617	-661.5767211914062	269.6471557617188	22.4176082611084	-671.4719848632812	36.73935699462891	155.5069885253906	-728.2092895507812	72.06932830810547	170.6622772216797	-739.9021606445312	44.96200561523438	71.33361053466797	-854.339599609375	171.1072998046875	113.3809280395508	-137.2646179199219	477.8863525390625	242.9093780517578	-219.4095611572266	721.0584716796875	298.4493103027344	-118.1627578735352	51.65406036376953	206.4419097900391	-102.1172866821289	355.1002807617188	220.5616455078125	49.95882034301758	40.12409210205078	120.7404098510742	-28.9483757019043	42.66660308837891	100.0610122680664	-34.88167572021484	41.99387359619141	201.0548400878906	-196.0166625976562	40.33872604370117	164.1262359619141	-459.8234252929688	667.3499755859375	377.137939453125	-517.4910278320312	693.96923828125	400.6466064453125	-361.1112976074219	922.511474609375	324.3990478515625	nan	nan	nan	nan	nan	nan	nan	nan	nan	
135	1.34	-447.7894287109375	934.5341186523438	223.2757110595703	-465.8800354003906	922.39013671875	92.63475036621094	-455.7628479003906	1001.107177734375	151.6479644775391	-229.0328063964844	1163.420043945312	139.2132873535156	-479.7655029296875	1104.927856445312	141.9036712646484	-447.0779418945312	1353.388061523438	129.1088256835938	-288.4424438476562	1280.222045898438	139.4322204589844	-487.05029296875	1206.604736328125	189.2791137695312	-461.0430603027344	1317.253662109375	26.5364990234375	-374.1559448242188	1336.600708007812	-21.66647911071777	-394.8502807617188	1216.114501953125	-89.33892059326172	-351.2608032226562	1026.17138671875	-116.4092178344727	-397.2882080078125	992.6781616210938	-51.05065536499023	-166.1566925048828	906.4828491210938	-87.4771728515625	-202.4780731201172	869.4631958007812	-152.2845153808594	-295.8482055664062	949.4525146484375	-131.4303741455078	-57.69809722900391	768.3609008789062	-113.9828338623047	-135.4884490966797	813.1489868164062	-153.3386688232422	-92.74964141845703	847.5867919921875	-120.3271713256836	-396.7014465332031	1331.788818359375	288.3830871582031	-420.96337890625	1269.817138671875	340.2168579101562	-477.9170837402344	1014.794677734375	360.8864440917969	-468.548583984375	1008.838806152344	265.9614868164062	-410.9248962402344	773.65625	362.2062072753906	-469.9044494628906	779.8126831054688	407.3047180175781	-476.5188598632812	948.4169311523438	381.8033142089844	-472.5460510253906	613.84326171875	345.2723693847656	-415.9895324707031	1538.35986328125	220.6225891113281	-276.7235717773438	1552.1025390625	78.78970336914062	-285.46337890625	1554.527099609375	201.3351745605469	-423.1840515136719	1532.946044921875	58.36521148681641	-398.5899353027344	902.6649169921875	-32.19455718994141	-228.5584869384766	931.1278076171875	246.1190795898438	-277.6924438476562	895.7062377929688	-11.21790885925293	-456.9078063964844	423.3911743164062	2.5190110206604	-428.1518249511719	560.930419921875	-10.67944622039795	-816.3220825195312	140.0648040771484	59.37149810791016	-643.2407836914062	273.4824829101562	18.77887535095215	-669.9326171875	36.02629470825195	154.4595184326172	-721.4800415039062	75.70640563964844	168.0567626953125	-734.8458251953125	46.90594863891602	69.17863464355469	-837.2911376953125	183.5921936035156	108.4314422607422	-125.7483139038086	478.0371398925781	242.3247985839844	-205.0772857666016	722.4994506835938	298.9739685058594	-117.3578491210938	51.70519256591797	206.2947387695312	-93.32499694824219	354.35888671875	219.6330261230469	51.01521682739258	37.42470169067383	119.9815902709961	-28.3224048614502	41.4726676940918	99.65084838867188	-34.26288223266602	41.62063217163086	200.8128662109375	-195.5395812988281	40.92903518676758	164.2631378173828	-439.1605834960938	668.9946899414062	377.604736328125	-496.5311584472656	694.6831665039062	402.1839904785156	-346.7084045410156	925.0657958984375	324.7193298339844	nan	nan	nan	nan	nan	nan	nan	nan	nan	
136	1.35	-433.52685546875	936.2828369140625	223.5560760498047	-451.5415344238281	922.8629150390625	92.96656036376953	-441.1000366210938	1002.3603515625	152.0376129150391	-215.1847229003906	1165.732421875	139.2953491210938	-465.3955383300781	1105.986083984375	142.4084167480469	-434.077880859375	1354.612426757812	129.4580535888672	-275.0783386230469	1282.329833984375	139.4349517822266	-473.130615234375	1207.77783203125	189.9422760009766	-448.1304016113281	1318.39208984375	27.04935455322266	-361.5166320800781	1338.027099609375	-21.44107627868652	-382.6601867675781	1217.647705078125	-88.9666748046875	-340.8253173828125	1026.98486328125	-115.7084732055664	-386.9882507324219	994.7756958007812	-49.81120300292969	-159.45654296875	899.4201049804688	-86.32611846923828	-197.0609130859375	864.1134033203125	-151.2248687744141	-287.246337890625	947.8452758789062	-130.6331939697266	-57.81024932861328	756.1529541015625	-111.8105163574219	-132.7621765136719	804.6365356445312	-151.8287963867188	-88.72278594970703	836.9595947265625	-118.5774002075195	-383.1454772949219	1333.667114257812	288.566162109375	-406.7232360839844	1271.704345703125	340.7169799804688	-461.433837890625	1016.23779296875	362.6200866699219	-453.2719421386719	1010.374084472656	267.4586486816406	-391.087158203125	776.011474609375	362.9177551269531	-449.4900207519531	781.1349487304688	408.9633178710938	-458.9413452148438	949.7529907226562	383.4772644042969	-450.5882568359375	615.347412109375	346.2645263671875	-403.6078796386719	1539.895874023438	220.5259857177734	-264.5772094726562	1553.990112304688	78.51593017578125	-273.1778869628906	1556.549072265625	201.064453125	-410.983154296875	1534.20703125	58.30545425415039	-383.9029846191406	903.0863647460938	-31.50860404968262	-214.1513977050781	933.6153564453125	246.9822387695312	-263.2659301757812	896.9775390625	-10.06622791290283	-433.4060974121094	421.9138793945312	-0.5414040684700012	-407.128662109375	559.3106689453125	-11.9094123840332	-800.7402954101562	150.6134796142578	54.39002227783203	-623.425537109375	277.1011962890625	14.9144229888916	-666.96337890625	35.20370864868164	153.0051422119141	-713.3075561523438	79.90805053710938	165.1298370361328	-728.3248901367188	49.84737396240234	66.489501953125	-818.4398193359375	195.845703125	103.0578842163086	-115.1111831665039	477.9126281738281	241.9452972412109	-191.1338043212891	723.8134155273438	299.4869079589844	-116.8165283203125	51.7651252746582	206.1977081298828	-85.34844207763672	353.4458923339844	218.9317169189453	51.64021301269531	35.72515869140625	119.4137344360352	-27.92960739135742	40.763671875	99.34523010253906	-33.86889266967773	41.48990631103516	200.66015625	-195.2421264648438	41.29101181030273	164.3616027832031	-417.545654296875	671.0060424804688	378.4578857421875	-474.91357421875	695.5972290039062	403.94873046875	-332.389404296875	927.6106567382812	325.142333984375	nan	nan	nan	nan	nan	nan	nan	nan	nan	
